<svg width="29" height="20" viewBox="0 0 29 20" fill="none" xmlns="http://www.w3.org/2000/svg">
<path d="M21.5834 13.9827H8.83341C8.45769 13.9827 8.09736 13.8586 7.83168 13.6378C7.566 13.417 7.41675 13.1175 7.41675 12.8052V2.20776C7.41675 1.89547 7.566 1.59597 7.83168 1.37515C8.09736 1.15433 8.45769 1.03027 8.83341 1.03027H21.5834M21.5834 13.9827H25.8334C26.2091 13.9827 26.5695 13.8586 26.8351 13.6378C27.1008 13.417 27.2501 13.1175 27.2501 12.8052V2.20776C27.2501 1.89547 27.1008 1.59597 26.8351 1.37515C26.5695 1.15433 26.2091 1.03027 25.8334 1.03027H21.5834M21.5834 13.9827V12.8052M21.5834 1.03027V2.20776" stroke="currentColor" stroke-width="2" stroke-linecap="round" stroke-linejoin="round"/>
<path d="M15.9167 18.6926H3.16667C2.79094 18.6926 2.43061 18.5686 2.16493 18.3477C1.89926 18.1269 1.75 17.8274 1.75 17.5151V6.91772C1.75 6.60543 1.89926 6.30594 2.16493 6.08511C2.43061 5.86429 2.79094 5.74023 3.16667 5.74023H7.41667M15.9167 18.6926H20.1667C20.5424 18.6926 20.9027 18.5686 21.1684 18.3477C21.4341 18.1269 21.5833 17.8274 21.5833 17.5151V14.5714M15.9167 18.6926V17.5151M21.5833 5.74141V5.74023M21.5833 9.27388V9.2727" stroke="currentColor" stroke-width="2" stroke-linecap="round" stroke-linejoin="round"/>
</svg>
