<svg width="36" height="36" viewBox="0 0 24 24" fill="none" xmlns="http://www.w3.org/2000/svg">
<path d="M21 10C21 17 12 23 12 23C12 23 3 17 3 10C3 7.61305 3.94821 5.32387 5.63604 3.63604C7.32387 1.94821 9.61305 1 12 1C14.3869 1 16.6761 1.94821 18.364 3.63604C20.0518 5.32387 21 7.61305 21 10Z" fill="black" fill-opacity="0.49" stroke="white" stroke-width="2" stroke-linecap="round" stroke-linejoin="round"/>
<path d="M9.23057 6.75001H14.769C14.9557 6.75001 15.124 6.63587 15.1955 6.46079C15.267 6.28548 15.2276 6.08415 15.0954 5.94985L12.3261 3.13734C12.2359 3.0457 12.118 3 11.9998 3C11.8817 3 11.7637 3.0457 11.6735 3.13734L8.90426 5.94985C8.77226 6.08391 8.7328 6.28548 8.8041 6.46079C8.87564 6.63587 9.04387 6.75001 9.23057 6.75001Z" fill="white"/>
<path d="M8.30772 9.56266H15.6924C15.879 9.56266 16.0473 9.44852 16.1188 9.27344C16.1904 9.09813 16.1509 8.8968 16.0187 8.7625L14.5083 7.22852H9.4918L7.98141 8.7625C7.84941 8.89657 7.80995 9.09813 7.88125 9.27344C7.95279 9.44852 8.12102 9.56266 8.30772 9.56266Z" fill="white"/>
<path d="M11.0771 17.7656C11.0771 17.8952 11.1803 18 11.3079 18H12.6925C12.8202 18 12.9233 17.8952 12.9233 17.7656V15.6562H11.0771V17.7656Z" fill="white"/>
<path d="M17.8648 14.3872L16.3449 12.8438H7.65507L6.13522 14.3872C6.00322 14.5213 5.96375 14.723 6.03506 14.8983C6.1066 15.0734 6.27483 15.1875 6.46152 15.1875H17.5385C17.7252 15.1875 17.8934 15.0734 17.9649 14.8983C18.0362 14.723 17.9968 14.5213 17.8648 14.3872Z" fill="white"/>
<path d="M7.38438 12.375H16.6152C16.8019 12.375 16.9701 12.2609 17.0416 12.0858C17.1132 11.9105 17.0737 11.7091 16.9415 11.5748L15.4216 10.0312H8.57792L7.05807 11.5748C6.92607 11.7089 6.88661 11.9105 6.95791 12.0858C7.02945 12.2609 7.19768 12.375 7.38438 12.375Z" fill="white"/>
</svg>
